<svg width="60" height="60" viewBox="0 0 60 60" fill="none" xmlns="http://www.w3.org/2000/svg">
<path d="M57.8639 14.3556C58.5431 12.1645 58.761 9.85637 58.5038 7.57685C58.2466 5.29732 57.5199 3.09582 56.3694 1.11115C56.1744 0.773253 55.8938 0.492678 55.5558 0.297633C55.2179 0.102588 54.8346 -5.12593e-05 54.4444 3.63648e-05C51.8561 -0.00538148 49.3023 0.594658 46.9872 1.75221C44.6721 2.90977 42.6598 4.59275 41.1111 6.6667H34.4444C32.8958 4.59275 30.8835 2.90977 28.5684 1.75221C26.2532 0.594658 23.6995 -0.00538148 21.1111 3.63648e-05C20.7209 -5.12593e-05 20.3376 0.102588 19.9997 0.297633C19.6618 0.492678 19.3812 0.773253 19.1861 1.11115C18.0357 3.09582 17.309 5.29732 17.0518 7.57685C16.7945 9.85637 17.0124 12.1645 17.6917 14.3556C16.3187 16.752 15.5832 19.4605 15.5556 22.2222V24.4445C15.5602 28.2045 16.9252 31.8358 19.3984 34.6679C21.8716 37.5001 25.286 39.3417 29.0111 39.8528C27.4906 41.7985 26.6652 44.1973 26.6667 46.6667V48.8889H20C18.2319 48.8889 16.5362 48.1865 15.286 46.9363C14.0357 45.686 13.3333 43.9903 13.3333 42.2222C13.3333 40.7631 13.0459 39.3183 12.4876 37.9702C11.9292 36.6221 11.1107 35.3973 10.079 34.3655C9.0472 33.3337 7.82232 32.5153 6.47426 31.9569C5.1262 31.3985 3.68135 31.1111 2.22222 31.1111C1.63285 31.1111 1.06762 31.3453 0.650874 31.762C0.234126 32.1787 0 32.744 0 33.3334C0 33.9227 0.234126 34.488 0.650874 34.9047C1.06762 35.3214 1.63285 35.5556 2.22222 35.5556C3.99033 35.5556 5.68603 36.2579 6.93627 37.5082C8.18651 38.7584 8.88889 40.4541 8.88889 42.2222C8.88889 45.1691 10.0595 47.9952 12.1433 50.079C14.227 52.1627 17.0532 53.3333 20 53.3333H26.6667V57.7778C26.6667 58.3671 26.9008 58.9324 27.3175 59.3491C27.7343 59.7659 28.2995 60 28.8889 60C29.4783 60 30.0435 59.7659 30.4602 59.3491C30.877 58.9324 31.1111 58.3671 31.1111 57.7778V46.6667C31.1111 44.8986 31.8135 43.2029 33.0637 41.9526C34.314 40.7024 36.0097 40 37.7778 40C39.5459 40 41.2416 40.7024 42.4918 41.9526C43.7421 43.2029 44.4444 44.8986 44.4444 46.6667V57.7778C44.4444 58.3671 44.6786 58.9324 45.0953 59.3491C45.5121 59.7659 46.0773 60 46.6667 60C47.256 60 47.8213 59.7659 48.238 59.3491C48.6548 58.9324 48.8889 58.3671 48.8889 57.7778V46.6667C48.8903 44.1973 48.065 41.7985 46.5444 39.8528C50.2696 39.3417 53.684 37.5001 56.1572 34.6679C58.6304 31.8358 59.9953 28.2045 60 24.4445V22.2222C59.9723 19.4605 59.2369 16.752 57.8639 14.3556ZM55.5556 24.4445C55.5556 27.3913 54.3849 30.2175 52.3012 32.3012C50.2175 34.3849 47.3913 35.5556 44.4444 35.5556H31.1111C28.1643 35.5556 25.3381 34.3849 23.2544 32.3012C21.1706 30.2175 20 27.3913 20 24.4445V22.2222C20.0272 20.0001 20.6925 17.8326 21.9167 15.9778C22.1449 15.677 22.2927 15.3231 22.3461 14.9493C22.3996 14.5756 22.3569 14.1944 22.2222 13.8417C21.6434 12.3489 21.3648 10.7566 21.4025 9.15594C21.4401 7.55531 21.7933 5.97784 22.4417 4.51392C24.2603 4.70957 26.0116 5.31202 27.5658 6.27662C29.1199 7.24122 30.437 8.54323 31.4194 10.0861C31.6196 10.3992 31.8952 10.6571 32.2208 10.8361C32.5464 11.0152 32.9117 11.1098 33.2833 11.1111H42.2694C42.6425 11.1112 43.0095 11.0173 43.3367 10.8381C43.6639 10.659 43.9407 10.4004 44.1417 10.0861C45.124 8.54309 46.441 7.24098 47.9952 6.27636C49.5494 5.31174 51.3007 4.70937 53.1194 4.51392C53.7669 5.9782 54.1191 7.55586 54.1558 9.1565C54.1925 10.7571 53.913 12.3493 53.3333 13.8417C53.199 14.191 53.1541 14.5683 53.2026 14.9394C53.2511 15.3105 53.3915 15.6636 53.6111 15.9667C54.8474 17.8215 55.5225 19.9935 55.5556 22.2222V24.4445Z" fill="#807A7A"/>
</svg>
