<svg width="140" height="140" viewBox="0 0 140 140" fill="none" xmlns="http://www.w3.org/2000/svg">
<g filter="url(#filter0_dd_0_1)">
<rect x="4" y="3" width="132" height="132" rx="66" fill="white"/>
<rect x="4.5" y="3.5" width="131" height="131" rx="65.5" stroke="#737373"/>
</g>
<path d="M90.8639 53.3556C91.5431 51.1645 91.761 48.8564 91.5038 46.5768C91.2466 44.2973 90.5199 42.0958 89.3694 40.1111C89.1744 39.7733 88.8938 39.4927 88.5558 39.2976C88.2179 39.1026 87.8346 38.9999 87.4444 39C84.8561 38.9946 82.3023 39.5947 79.9872 40.7522C77.6721 41.9098 75.6598 43.5928 74.1111 45.6667H67.4444C65.8958 43.5928 63.8835 41.9098 61.5684 40.7522C59.2532 39.5947 56.6995 38.9946 54.1111 39C53.7209 38.9999 53.3376 39.1026 52.9997 39.2976C52.6618 39.4927 52.3812 39.7733 52.1861 40.1111C51.0357 42.0958 50.309 44.2973 50.0518 46.5768C49.7945 48.8564 50.0124 51.1645 50.6917 53.3556C49.3187 55.752 48.5832 58.4605 48.5556 61.2222V63.4445C48.5602 67.2045 49.9252 70.8358 52.3984 73.6679C54.8716 76.5001 58.286 78.3417 62.0111 78.8528C60.4906 80.7985 59.6652 83.1973 59.6667 85.6667V87.8889H53C51.2319 87.8889 49.5362 87.1865 48.286 85.9363C47.0357 84.686 46.3333 82.9903 46.3333 81.2222C46.3333 79.7631 46.0459 78.3183 45.4876 76.9702C44.9292 75.6221 44.1107 74.3973 43.079 73.3655C42.0472 72.3337 40.8223 71.5153 39.4743 70.9569C38.1262 70.3985 36.6814 70.1111 35.2222 70.1111C34.6329 70.1111 34.0676 70.3453 33.6509 70.762C33.2341 71.1787 33 71.744 33 72.3334C33 72.9227 33.2341 73.488 33.6509 73.9047C34.0676 74.3214 34.6329 74.5556 35.2222 74.5556C36.9903 74.5556 38.686 75.2579 39.9363 76.5082C41.1865 77.7584 41.8889 79.4541 41.8889 81.2222C41.8889 84.1691 43.0595 86.9952 45.1433 89.079C47.227 91.1627 50.0532 92.3333 53 92.3333H59.6667V96.7778C59.6667 97.3671 59.9008 97.9324 60.3175 98.3491C60.7343 98.7659 61.2995 99 61.8889 99C62.4783 99 63.0435 98.7659 63.4602 98.3491C63.877 97.9324 64.1111 97.3671 64.1111 96.7778V85.6667C64.1111 83.8986 64.8135 82.2029 66.0637 80.9526C67.314 79.7024 69.0097 79 70.7778 79C72.5459 79 74.2416 79.7024 75.4918 80.9526C76.7421 82.2029 77.4444 83.8986 77.4444 85.6667V96.7778C77.4444 97.3671 77.6786 97.9324 78.0953 98.3491C78.5121 98.7659 79.0773 99 79.6667 99C80.256 99 80.8213 98.7659 81.238 98.3491C81.6548 97.9324 81.8889 97.3671 81.8889 96.7778V85.6667C81.8903 83.1973 81.065 80.7985 79.5444 78.8528C83.2696 78.3417 86.684 76.5001 89.1572 73.6679C91.6304 70.8358 92.9953 67.2045 93 63.4445V61.2222C92.9723 58.4605 92.2369 55.752 90.8639 53.3556ZM88.5556 63.4445C88.5556 66.3913 87.3849 69.2175 85.3012 71.3012C83.2175 73.3849 80.3913 74.5556 77.4444 74.5556H64.1111C61.1643 74.5556 58.3381 73.3849 56.2544 71.3012C54.1706 69.2175 53 66.3913 53 63.4445V61.2222C53.0272 59.0001 53.6925 56.8326 54.9167 54.9778C55.1449 54.677 55.2927 54.3231 55.3461 53.9493C55.3996 53.5756 55.3569 53.1944 55.2222 52.8417C54.6434 51.3489 54.3648 49.7566 54.4025 48.1559C54.4401 46.5553 54.7933 44.9778 55.4417 43.5139C57.2603 43.7096 59.0116 44.312 60.5658 45.2766C62.1199 46.2412 63.437 47.5432 64.4194 49.0861C64.6196 49.3992 64.8952 49.6571 65.2208 49.8361C65.5464 50.0152 65.9117 50.1098 66.2833 50.1111H75.2694C75.6425 50.1112 76.0095 50.0173 76.3367 49.8381C76.6639 49.659 76.9407 49.4004 77.1417 49.0861C78.124 47.5431 79.441 46.241 80.9952 45.2764C82.5494 44.3117 84.3007 43.7094 86.1194 43.5139C86.7669 44.9782 87.1191 46.5559 87.1558 48.1565C87.1925 49.7571 86.913 51.3493 86.3333 52.8417C86.199 53.191 86.1541 53.5683 86.2026 53.9394C86.2511 54.3105 86.3915 54.6636 86.6111 54.9667C87.8474 56.8215 88.5225 58.9935 88.5556 61.2222V63.4445Z" fill="#807A7A"/>
<defs>
<filter id="filter0_dd_0_1" x="0" y="0" width="140" height="140" filterUnits="userSpaceOnUse" color-interpolation-filters="sRGB">
<feFlood flood-opacity="0" result="BackgroundImageFix"/>
<feColorMatrix in="SourceAlpha" type="matrix" values="0 0 0 0 0 0 0 0 0 0 0 0 0 0 0 0 0 0 127 0" result="hardAlpha"/>
<feMorphology radius="1" operator="dilate" in="SourceAlpha" result="effect1_dropShadow_0_1"/>
<feOffset dy="1"/>
<feGaussianBlur stdDeviation="1.5"/>
<feColorMatrix type="matrix" values="0 0 0 0 0 0 0 0 0 0 0 0 0 0 0 0 0 0 0.15 0"/>
<feBlend mode="normal" in2="BackgroundImageFix" result="effect1_dropShadow_0_1"/>
<feColorMatrix in="SourceAlpha" type="matrix" values="0 0 0 0 0 0 0 0 0 0 0 0 0 0 0 0 0 0 127 0" result="hardAlpha"/>
<feOffset dy="1"/>
<feGaussianBlur stdDeviation="1"/>
<feColorMatrix type="matrix" values="0 0 0 0 0 0 0 0 0 0 0 0 0 0 0 0 0 0 0.3 0"/>
<feBlend mode="normal" in2="effect1_dropShadow_0_1" result="effect2_dropShadow_0_1"/>
<feBlend mode="normal" in="SourceGraphic" in2="effect2_dropShadow_0_1" result="shape"/>
</filter>
</defs>
</svg>
